# xmcd
#
# Track frame offsets:
#	150
#	23126
#	40154
#	57915
#	76797
#	104991
#	141930
#	164259
#	181961
#	216492
#
# Disc length: 3259 seconds
#
# Revision: 1
# Processed by: cddbd v1.5.2PL0 Copyright (c) Steve Scherf et al.
# Submitted via: audiograbber 1.83.01
#
DISCID=8c0cb90a
DTITLE=Kraftwerk - Bonus Tracks
DYEAR=1900
DGENRE=Rock
TTITLE0=Computerwelt (Special Version Mix) 
TTITLE1=Tour De France (French 7inch Edit) 
TTITLE2=Tour De France (Remix 7inch Edit) 
TTITLE3=Musique Non Stop (7inch Mix) 
TTITLE4=Musique Non Stop (12inch Mix) 
TTITLE5=The Telephone Call (Remix) 
TTITLE6=House Phone 
TTITLE7=Sex Object (7inch Version) 
TTITLE8=Sex Object (12inch Version) 
TTITLE9=Radioactivity (William Orbit Hardcore Mix) 
EXTD=
EXTT0=
EXTT1=
EXTT2=
EXTT3=
EXTT4=
EXTT5=
EXTT6=
EXTT7=
EXTT8=
EXTT9=
PLAYORDER=
